<svg id="Layer_1" enable-background="new 0 0 511.773 511.773" height="512" viewBox="0 0 511.773 511.773" width="512" xmlns="http://www.w3.org/2000/svg"><g><g><g><path d="m223.386 504.5v-480.171c0-9.294 7.535-16.829 16.829-16.829h31.347c9.292 0 16.824 7.532 16.824 16.824v480.176z" fill="#a9b2cc"/><path d="m271.562 7.5h-31.347c-.279 0-.551.028-.826.042 8.905.434 15.997 7.77 15.997 16.782v480.176h33v-480.176c0-9.292-7.532-16.824-16.824-16.824z" fill="#8f9bbf"/><circle cx="255.886" cy="256.333" fill="#ff2e2e" r="208.667"/><path d="m255.886 47.667c-6.747 0-13.417.333-20 .959 105.859 10.068 188.667 99.212 188.667 207.708s-82.807 197.64-188.667 207.708c6.583.626 13.253.959 20 .959 115.243 0 208.667-93.423 208.667-208.667s-93.423-208.667-208.667-208.667z" fill="#f20f0f"/></g><path d="m393.621 295.636h-275.469c-5.523 0-10-4.477-10-10v-58.606c0-5.523 4.477-10 10-10h275.469c5.523 0 10 4.477 10 10v58.606c0 5.523-4.477 10-10 10z" fill="#fff"/><path d="m393.621 217.03h-30c5.523 0 10 4.477 10 10v58.606c0 5.523-4.477 10-10 10h30c5.523 0 10-4.477 10-10v-58.606c0-5.523-4.477-10-10-10z" fill="#e1edf7"/></g><g><path d="m472.053 256.333c0-57.74-22.485-112.024-63.314-152.853-31.234-31.234-70.346-51.717-112.853-59.626v-19.525c0-13.415-10.912-24.329-24.324-24.329h-31.352c-13.413 0-24.324 10.914-24.324 24.329v19.602c-35.13 6.638-68.382 21.919-96.312 44.639-7.523 6.119 1.944 17.756 9.466 11.636 35.703-29.043 80.75-45.039 126.846-45.039 110.924 0 201.167 90.243 201.167 201.166 0 110.924-90.243 201.167-201.167 201.167-110.923 0-201.167-90.243-201.167-201.167 0-47.239 16.712-93.154 47.058-129.286 6.236-7.425-5.251-17.074-11.486-9.646-32.611 38.829-50.571 88.17-50.571 138.932 0 57.74 22.485 112.024 63.314 152.853 31.234 31.234 70.346 51.717 112.853 59.627v35.687c0 9.697 15 9.697 15 0v-33.435c8.24.943 16.582 1.435 25 1.435s16.76-.492 25-1.435v33.435c0 9.697 15 9.697 15 0v-35.687c42.506-7.909 81.619-28.393 112.853-59.627 40.828-40.829 63.313-95.113 63.313-152.853zm-241.167-214.693v-17.311c0-5.144 4.183-9.329 9.324-9.329h31.352c5.142 0 9.324 4.185 9.324 9.329v17.273c-8.24-.943-16.582-1.435-25-1.435-8.38 0-16.727.504-25 1.473z"/><path d="m393.621 288.137h-30.768c-4.143 0-7.5 3.358-7.5 7.5s3.357 7.5 7.5 7.5h30.768c9.649 0 17.5-7.851 17.5-17.5v-58.607c0-9.649-7.851-17.5-17.5-17.5h-275.47c-9.649 0-17.5 7.851-17.5 17.5v58.606c0 9.649 7.851 17.5 17.5 17.5h204.729c4.143 0 7.5-3.358 7.5-7.5s-3.357-7.5-7.5-7.5h-204.729c-1.378 0-2.5-1.122-2.5-2.5v-58.606c0-1.378 1.122-2.5 2.5-2.5h275.469c1.379 0 2.5 1.122 2.5 2.5v58.606c.001 1.379-1.12 2.501-2.499 2.501z"/></g></g></svg>