<?xml version="1.0" encoding="iso-8859-1"?>
<!-- Generator: Adobe Illustrator 19.0.0, SVG Export Plug-In . SVG Version: 6.00 Build 0)  -->
<svg version="1.1" id="Capa_1" xmlns="http://www.w3.org/2000/svg" xmlns:xlink="http://www.w3.org/1999/xlink" x="0px" y="0px"
	 viewBox="0 0 512 512" style="enable-background:new 0 0 512 512;" xml:space="preserve">
<circle style="fill:#55D3FA;" cx="328.141" cy="183.859" r="176.344"/>
<circle style="fill:#EDEBEC;" cx="183.86" cy="328.141" r="176.344"/>
<path style="fill:#DCD7D8;" d="M207.907,480.438c-97.392,0-176.344-78.952-176.344-176.344c0-42.573,15.087-81.621,40.206-112.093
	C32.53,224.345,7.515,273.322,7.515,328.141c0,97.392,78.952,176.344,176.344,176.344c54.82,0,103.796-25.015,136.14-64.251
	C289.528,465.351,250.48,480.438,207.907,480.438z"/>
<path style="fill:#7FDEFB;" d="M183.86,151.796c-10.082,0-19.961,0.859-29.58,2.484c-1.625,9.619-2.483,19.498-2.483,29.579
	c0,97.392,78.952,176.344,176.344,176.344c10.082,0,19.961-0.859,29.58-2.484c1.625-9.619,2.483-19.498,2.483-29.579
	C360.204,230.749,281.252,151.796,183.86,151.796z"/>
<path d="M510.469,207.611c0.005-0.046,0.015-0.091,0.019-0.136c0.996-7.734,1.512-15.616,1.512-23.616
	c0-11.414-1.054-22.586-3.055-33.43c-0.029-0.193-0.066-0.385-0.11-0.576c-2.866-15.263-7.624-29.864-14.02-43.555
	c-0.176-0.522-0.411-1.026-0.704-1.506c-5.95-12.439-13.257-24.11-21.73-34.818c-0.314-0.527-0.687-1.027-1.141-1.481
	c-0.061-0.061-0.128-0.113-0.191-0.172c-8.323-10.275-17.73-19.637-28.045-27.913c-0.058-0.062-0.11-0.127-0.17-0.188
	c-0.466-0.465-0.981-0.849-1.524-1.166c-10.751-8.42-22.464-15.665-34.938-21.554c-0.475-0.291-0.975-0.522-1.491-0.697
	c-13.77-6.35-28.45-11.053-43.79-13.839c-0.191-0.043-0.383-0.079-0.576-0.107C350.002,0.98,339.184,0,328.141,0
	c-8.493,0-16.848,0.592-25.037,1.711c-0.026,0.002-0.052,0.008-0.079,0.011C225.371,12.378,163.02,71.701,147.834,147.839
	c-19.932,3.971-39.127,11.218-56.726,21.52c-3.582,2.097-4.785,6.7-2.689,10.282c2.097,3.582,6.701,4.785,10.281,2.689
	c14.561-8.524,30.317-14.768,46.687-18.586c-0.722,6.608-1.105,13.317-1.105,20.115c0,11.033,0.979,21.842,2.851,32.344
	c0.03,0.206,0.067,0.411,0.114,0.614c2.786,15.336,7.488,30.011,13.836,43.777c0.175,0.518,0.408,1.019,0.699,1.496
	c5.89,12.473,13.133,24.185,21.553,34.936c0.318,0.543,0.701,1.058,1.167,1.524c0.059,0.06,0.124,0.11,0.185,0.167
	c8.277,10.316,17.639,19.724,27.916,28.049c0.059,0.063,0.111,0.129,0.172,0.19c0.453,0.453,0.953,0.827,1.479,1.14
	c10.709,8.474,22.38,15.781,34.819,21.731c0.48,0.294,0.985,0.528,1.506,0.704c13.693,6.397,28.296,11.156,43.562,14.022
	c0.187,0.043,0.375,0.079,0.564,0.108c10.846,2.001,22.02,3.056,33.436,3.056c6.8,0,13.511-0.383,20.121-1.106
	c-17.457,74.618-84.542,130.358-164.404,130.358c-93.093,0-168.83-75.737-168.83-168.83c0-46.942,18.806-90.548,52.953-122.787
	c3.018-2.849,3.154-7.605,0.306-10.623c-2.85-3.018-7.606-3.154-10.623-0.306c-18.017,17.01-32.197,37.085-42.144,59.668
	C5.223,277.477,0,302.39,0,328.141C0,429.522,82.48,512,183.86,512c89.054,0,163.513-63.644,180.306-147.835
	C440.748,348.889,500.327,285.899,510.469,207.611z M266.141,340.895l74.755-74.754c3.465,8.746,6.214,17.85,8.187,27.237
	l-55.705,55.704C283.991,347.11,274.887,344.361,266.141,340.895z M229.54,320.818l91.279-91.278
	c5.017,6.949,9.524,14.287,13.453,21.969l-82.764,82.764C243.827,330.342,236.488,325.834,229.54,320.818z M478.554,107.227
	L345.392,240.39c-4.11-7.535-8.735-14.749-13.821-21.602l133.53-133.53C470.117,92.206,474.624,99.545,478.554,107.227z
	 M352.378,254.659l132.8-132.799c3.465,8.746,6.214,17.85,8.186,27.236L361.557,280.904
	C359.151,271.864,356.072,263.098,352.378,254.659z M496.18,167.537c0.518,5.372,0.792,10.815,0.792,16.322
	c0,6.573-0.391,13.055-1.125,19.434L367.677,331.462c0.02-1.106,0.042-2.211,0.042-3.322c0-10.12-0.835-20.047-2.416-29.727
	L496.18,167.537z M455.713,73.389L322.072,207.03c-5.512-6.283-11.439-12.193-17.749-17.676L437.951,55.728
	C444.295,61.172,450.236,67.074,455.713,73.389z M177.323,259.676l82.354-82.354c7.715,3.895,15.095,8.357,22.079,13.345
	l-91.088,91.088C185.68,274.772,181.217,267.391,177.323,259.676z M162.704,217.615l54.911-54.911
	c9.429,1.921,18.572,4.634,27.362,8.061l-74.213,74.214C167.339,236.188,164.625,227.044,162.704,217.615z M159.312,183.859
	c0-7.046,0.441-13.991,1.284-20.813l2.431-2.431c6.889-0.854,13.845-1.304,20.834-1.304c5.124,0,10.192,0.242,15.202,0.691
	l-39.057,39.058C159.554,194.051,159.312,188.983,159.312,183.859z M389.261,26.483L256.492,159.25
	c-8.478-3.66-17.28-6.705-26.356-9.067L361.898,18.422C371.327,20.344,380.471,23.057,389.261,26.483z M270.816,166.183
	L403.958,33.041c7.715,3.895,15.095,8.357,22.078,13.344l-133.53,133.531C285.623,174.857,278.38,170.261,270.816,166.183z
	 M343.343,15.721L212.541,146.523c-9.348-1.47-18.926-2.241-28.681-2.241c-1.527,0-3.052,0.038-4.576,0.076L307.329,16.313
	c6.822-0.843,13.767-1.284,20.813-1.284C333.265,15.029,338.333,15.272,343.343,15.721z M280.5,21.885L166.167,136.219
	C182.328,81.367,225.649,38.045,280.5,21.885z M200.01,293.669l93.659-93.659c6.344,5.445,12.285,11.346,17.762,17.661
	l-93.759,93.759C211.356,305.954,205.455,300.013,200.01,293.669z M311.819,351.897l40.078-40.078
	c0.518,5.372,0.792,10.815,0.792,16.322c0,6.573-0.391,13.055-1.125,19.434l-3.988,3.988c-6.379,0.735-12.862,1.126-19.435,1.126
	C322.636,352.689,317.192,352.415,311.819,351.897z M374.054,346.342l116.571-116.572
	C474.709,286.021,430.303,330.426,374.054,346.342z"/>
<g>
</g>
<g>
</g>
<g>
</g>
<g>
</g>
<g>
</g>
<g>
</g>
<g>
</g>
<g>
</g>
<g>
</g>
<g>
</g>
<g>
</g>
<g>
</g>
<g>
</g>
<g>
</g>
<g>
</g>
</svg>
